<svg width="1000" height="260" viewBox="0 0 1000 260" fill="none" xmlns="http://www.w3.org/2000/svg">
<rect width="1000" height="260" fill="white"/>
<path d="M215.648 108.818V92.531C220.543 92.531 224.192 89.772 224.192 83.809V83.364H215.648V67.077H220.721C221.433 70.014 225.972 73.841 229.621 74.019L230.778 72.239C225.883 71.438 222.59 68.145 222.59 65.119V61.114H252.494V67.077H259.525V83.364H250.892V83.809C250.892 87.992 254.274 90.751 259.525 90.751V105.258C249.557 105.258 241.013 103.567 233.003 95.112L231.134 96.714C233.27 99.028 235.673 100.897 238.788 103.033C232.825 107.127 223.302 108.818 215.648 108.818ZM287.56 106.148H261.839V64.407H287.56V73.663H294.324V94.667H287.56V106.148ZM215.114 123.058C215.114 112.289 226.506 107.394 252.227 107.394C277.948 107.394 289.34 112.289 289.34 123.058C289.34 133.827 277.948 138.722 252.227 138.722C226.506 138.722 215.114 133.827 215.114 123.058ZM241.458 118.519L240.301 121.1C247.332 124.393 256.766 125.55 264.598 125.105V122.524C257.211 122.969 248.222 121.634 241.458 118.519ZM296.72 77.668C296.72 70.014 302.95 63.072 321.017 63.072C339.084 63.072 345.314 70.014 345.314 77.668C345.314 85.144 339.084 92.175 321.017 92.175C302.95 92.175 296.72 85.144 296.72 77.668ZM334.367 117.807V108.017C341.665 108.017 348.34 107.216 352.612 106.771V104.635L347.272 104.991V64.407H372.993V113.98C359.643 116.739 347.984 117.985 334.367 117.807ZM312.918 74.197L311.761 76.778C317.457 78.736 323.331 79.715 329.828 79.715V77.134C323.776 77.134 318.347 75.977 312.918 74.197ZM333.477 138.722C318.97 138.722 309.358 137.832 304.107 133.649C297.521 128.398 299.835 117.985 305.531 113.98V106.148C302.95 106.148 300.28 106.148 297.521 106.148V93.243C314.52 93.243 327.692 93.51 344.691 92.887V104.724C339.974 104.991 335.524 105.258 331.252 105.436V117.807C328.404 117.718 324.933 117.54 320.038 117.184C318.881 119.053 322.441 120.744 333.477 120.744C349.408 120.744 364.093 119.409 372.993 116.294V134.183C361.69 137.031 349.408 138.722 333.477 138.722ZM379.394 90.929V64.407H423.983V80.783C418.732 82.118 409.743 82.652 403.335 82.652V85.322C410.099 85.322 419.622 84.521 427.365 82.652V64.407H451.306V73.663H458.07V94.667H451.306V112.111C445.076 114.692 434.218 116.65 427.365 116.205V101.787C420.779 104.012 408.853 105.347 395.77 105.347C383.31 105.347 379.394 100.63 379.394 90.929ZM380.818 107.75H406.628C406.628 115.048 411.345 118.608 420.512 118.964C431.726 119.32 442.406 118.608 451.306 115.048V134.717C440.893 137.565 432.527 138.722 418.376 138.722C391.943 138.722 377.792 131.335 380.818 107.75ZM461.267 101.876V84.432C466.607 84.699 476.842 84.165 481.915 82.563V79.893C476.842 81.495 466.607 82.029 461.267 81.762V64.407H505.856V73.93C505.856 98.672 495.532 103.656 461.267 101.876ZM533.179 101.698H509.238V64.407H533.179V71.883H539.943V92.887H533.179V101.698ZM461.267 122.168V104.101H533.179V137.476H479.245C467.23 137.476 461.267 132.492 461.267 122.168ZM486.632 115.849L485.475 118.43C492.506 121.723 501.94 122.88 509.772 122.435V119.854C502.385 120.299 493.396 118.964 486.632 115.849ZM542.251 100.897C542.251 72.684 551.24 63.072 565.391 63.072C579.631 63.072 588.62 72.684 588.62 100.897C588.62 129.021 579.631 138.722 565.391 138.722C551.24 138.722 542.251 129.11 542.251 100.897ZM615.053 137.476H591.112V64.407H615.053V87.636H621.817V108.64H615.053V137.476ZM557.025 96.269L555.423 98.672C561.297 101.342 568.595 102.677 575.27 102.677V100.007C568.595 100.007 562.276 98.405 557.025 96.269ZM625.014 103.478V85.411C629.909 84.521 633.558 81.762 633.558 73.129V64.407H660.258V73.129C660.258 81.762 663.551 84.521 668.891 85.411V103.478C658.923 103.478 650.379 101.787 642.369 93.332L640.5 94.934C641.746 96.358 643.348 97.693 645.128 98.939C639.165 101.787 632.668 103.478 625.014 103.478ZM696.926 103.478H671.205V64.407H696.926V72.773H703.69V93.777H696.926V103.478ZM625.014 125.639V105.881H696.926V137.476H671.205V125.639H625.014ZM739.283 86.924H733.409V102.499C733.409 113.357 736.969 115.582 739.283 115.582V137.476C730.116 137.476 723.263 131.78 720.949 126.529L719.169 128.309C719.703 129.199 721.661 132.136 722.729 133.026C718.457 135.696 712.138 137.387 705.997 137.921V115.76C709.29 115.76 711.96 111.488 711.96 102.499V86.924H705.997V67.077H710.625C711.159 69.569 714.274 74.019 716.944 73.752L718.19 72.239C714.274 71.438 712.316 67.7 712.316 65.119V61.114H735.011V67.077H739.283V86.924ZM735.367 110.776V88.526C737.147 88.437 739.194 88.348 741.33 88.17V64.407H760.821V137.476H741.33V110.598C739.194 110.776 737.058 110.776 735.367 110.776ZM782.359 137.476H762.868V64.407H782.359V137.476Z" fill="black"/>
<path d="M244.116 176.852C244.116 166.706 249.436 161.424 259.202 161.424C263.876 161.424 267.486 162.64 270.906 165.224V176.586C265.016 176.586 260.456 176.13 254.11 174.876V176.016C260.038 177.384 265.396 177.726 270.906 177.726V187.72C266.878 191.254 263.154 192.28 257.682 192.28C249.436 192.28 244.116 187.036 244.116 176.852ZM286.214 191.71H273.294V161.994H286.214V168.112C284.39 168.796 282.528 169.556 280.704 170.696L281.084 171.912C284.58 169.746 290.432 167.732 294.346 167.732C298.754 167.732 300.54 169.556 300.54 174.686V191.71H287.62V179.474L286.214 180.006V191.71ZM302.109 185.44C302.109 181.488 303.591 179.512 306.935 178.334C309.443 177.46 313.661 176.852 316.967 176.852V175.636C313.129 175.636 308.417 176.32 304.085 177.802V169.898C307.315 168.454 311.191 167.732 316.511 167.732C324.377 167.732 327.531 170.392 327.531 178.22V191.71H318.031V190.418C318.031 187.454 317.119 184.566 315.865 182.78L314.725 183.198C316.017 184.68 316.815 188.29 316.815 191.064C314.839 191.786 312.407 192.28 309.139 192.28C304.465 192.28 302.109 189.544 302.109 185.44ZM339.386 168.492L340.716 169.822C343.3 168.416 345.694 167.732 348.278 167.732C352.306 167.732 355.612 170.696 355.612 175.826V191.71H343.452V178.334L342.046 178.866V191.71H329.886V168.492H339.386ZM357.217 179.246C357.217 171.836 361.549 167.732 367.477 167.732C370.555 167.732 372.151 168.188 374.089 169.404L374.963 168.492H383.323V188.29C383.323 195.7 379.181 199.652 370.821 199.652C366.945 199.652 362.613 199.12 359.763 198.094V189.43C363.715 191.292 368.769 191.71 371.923 190.57V189.392C363.791 191.634 357.217 187.758 357.217 179.246ZM374.431 178.372L373.747 177.422C371.885 178.562 368.237 179.398 365.387 179.398V180.462C368.237 180.462 372.303 179.74 374.431 178.372ZM388.435 191.71L384.331 168.492H394.933L395.997 176.054L397.669 168.492H403.787L405.459 176.054L406.523 168.492H417.125L413.021 191.71H402.419L400.747 185.136L399.037 191.71H388.435ZM417.222 180.196C417.222 172.634 422.998 167.732 430.712 167.732C438.426 167.732 444.202 172.634 444.202 180.196C444.202 187.796 438.426 192.698 430.712 192.698C422.998 192.698 417.222 187.834 417.222 180.196ZM435.956 179.398L435.272 178.448C433.41 179.588 429.002 180.424 426.152 180.424V181.488C429.002 181.488 433.828 180.766 435.956 179.398ZM455.649 168.492L456.979 169.822C459.563 168.416 461.957 167.732 464.541 167.732C468.569 167.732 471.875 170.696 471.875 175.826V191.71H459.715V178.334L458.309 178.866V191.71H446.149V168.492H455.649ZM484.577 191.672H474.241V161.994H484.311C495.369 161.994 501.031 165.566 501.031 177.08C501.031 188.784 495.711 191.672 484.577 191.672ZM481.461 174.952L480.777 175.978C484.425 177.156 489.441 177.688 493.431 177.688V176.548C489.441 176.548 484.843 175.902 481.461 174.952ZM502.314 185.44C502.314 181.488 503.796 179.512 507.14 178.334C509.648 177.46 513.866 176.852 517.172 176.852V175.636C513.334 175.636 508.622 176.32 504.29 177.802V169.898C507.52 168.454 511.396 167.732 516.716 167.732C524.582 167.732 527.736 170.392 527.736 178.22V191.71H518.236V190.418C518.236 187.454 517.324 184.566 516.07 182.78L514.93 183.198C516.222 184.68 517.02 188.29 517.02 191.064C515.044 191.786 512.612 192.28 509.344 192.28C504.67 192.28 502.314 189.544 502.314 185.44ZM539.591 168.492L540.921 169.822C543.505 168.416 545.899 167.732 548.483 167.732C552.511 167.732 555.817 170.696 555.817 175.826V191.71H543.657V178.334L542.251 178.866V191.71H530.091V168.492H539.591ZM557.422 179.246C557.422 171.836 561.754 167.732 567.682 167.732C570.76 167.732 572.356 168.188 574.294 169.404L575.168 168.492H583.528V188.29C583.528 195.7 579.386 199.652 571.026 199.652C567.15 199.652 562.818 199.12 559.968 198.094V189.43C563.92 191.292 568.974 191.71 572.128 190.57V189.392C563.996 191.634 557.422 187.758 557.422 179.246ZM574.636 178.372L573.952 177.422C572.09 178.562 568.442 179.398 565.592 179.398V180.462C568.442 180.462 572.508 179.74 574.636 178.372ZM585.068 185.44C585.068 181.488 586.55 179.512 589.894 178.334C592.402 177.46 596.62 176.852 599.926 176.852V175.636C596.088 175.636 591.376 176.32 587.044 177.802V169.898C590.274 168.454 594.15 167.732 599.47 167.732C607.336 167.732 610.49 170.392 610.49 178.22V191.71H600.99V190.418C600.99 187.454 600.078 184.566 598.824 182.78L597.684 183.198C598.976 184.68 599.774 188.29 599.774 191.064C597.798 191.786 595.366 192.28 592.098 192.28C587.424 192.28 585.068 189.544 585.068 185.44ZM633.631 178.79V191.71H623.941V178.334L622.725 178.866V191.71H612.845V168.492H620.065L621.395 169.822C623.409 168.226 624.663 167.732 627.247 167.732C629.223 167.732 630.705 168.34 631.731 169.442C633.631 168.53 636.025 167.732 638.495 167.732C642.903 167.732 645.069 170.696 645.069 175.826V191.71H634.809V178.334L633.631 178.79ZM659.743 191.672H646.062L655.183 161.994H668.103L677.223 191.672H663.543L661.643 185.516L659.743 191.672ZM657.311 175.864L656.627 176.89C659.515 178.258 663.391 178.6 667 178.6V177.46C663.391 177.46 659.933 177.004 657.311 175.864ZM688.016 183.008C678.44 181.83 677.072 178.676 677.072 175.94C677.072 170.468 682.544 167.732 689.384 167.732C694.856 167.732 698.352 169.1 701.316 170.468V177.84C697.212 175.104 693.108 175.18 689.384 175.18V176.32C697.592 176.32 701.696 178.562 701.696 183.16C701.696 189.392 696.224 192.356 689.384 192.356C685.28 192.356 680.948 190.988 677.072 188.252V181.412C681.176 183.198 685.014 184.148 688.016 184.148V183.008ZM703.299 185.44C703.299 181.488 704.781 179.512 708.125 178.334C710.633 177.46 714.851 176.852 718.157 176.852V175.636C714.319 175.636 709.607 176.32 705.275 177.802V169.898C708.505 168.454 712.381 167.732 717.701 167.732C725.567 167.732 728.721 170.392 728.721 178.22V191.71H719.221V190.418C719.221 187.454 718.309 184.566 717.055 182.78L715.915 183.198C717.207 184.68 718.005 188.29 718.005 191.064C716.029 191.786 713.597 192.28 710.329 192.28C705.655 192.28 703.299 189.544 703.299 185.44ZM730.277 180.196C730.277 172.558 735.407 167.732 744.413 167.732C749.125 167.732 753.191 168.644 756.079 170.582V179.664C751.101 179.664 746.237 179.322 741.525 178.372V179.702C745.895 180.766 751.443 180.994 756.079 180.994V188.898C752.697 191.558 748.517 192.318 743.121 192.318C735.407 192.318 730.277 187.872 730.277 180.196Z" fill="black"/>
</svg>
