<svg width="580" height="260" viewBox="0 0 580 260" fill="none" xmlns="http://www.w3.org/2000/svg">
<rect width="580" height="260" fill="white"/>
<path d="M19.3832 108.77V93.215C24.0582 93.215 27.5432 90.58 27.5432 84.885V84.46H19.3832V68.905H24.2282C24.9082 71.71 29.2432 75.365 32.7282 75.535L33.8332 73.835C29.1582 73.07 26.0132 69.925 26.0132 67.035V63.21H54.5732V68.905H61.2882V84.46H53.0432V84.885C53.0432 88.88 56.2732 91.515 61.2882 91.515V105.37C51.7682 105.37 43.6082 103.755 35.9582 95.68L34.1732 97.21C36.2132 99.42 38.5082 101.205 41.4832 103.245C35.7882 107.155 26.6932 108.77 19.3832 108.77ZM88.0632 106.22H63.4982V66.355H88.0632V75.195H94.5232V95.255H88.0632V106.22ZM18.8732 122.37C18.8732 112.085 29.7532 107.41 54.3182 107.41C78.8832 107.41 89.7632 112.085 89.7632 122.37C89.7632 132.655 78.8832 137.33 54.3182 137.33C29.7532 137.33 18.8732 132.655 18.8732 122.37ZM44.0332 118.035L42.9282 120.5C49.6432 123.645 58.6532 124.75 66.1332 124.325V121.86C59.0782 122.285 50.4932 121.01 44.0332 118.035ZM96.8116 79.02C96.8116 71.71 102.762 65.08 120.017 65.08C137.272 65.08 143.222 71.71 143.222 79.02C143.222 86.16 137.272 92.875 120.017 92.875C102.762 92.875 96.8116 86.16 96.8116 79.02ZM132.767 117.355V108.005C139.737 108.005 146.112 107.24 150.192 106.815V104.775L145.092 105.115V66.355H169.657V113.7C156.907 116.335 145.772 117.525 132.767 117.355ZM112.282 75.705L111.177 78.17C116.617 80.04 122.227 80.975 128.432 80.975V78.51C122.652 78.51 117.467 77.405 112.282 75.705ZM131.917 137.33C118.062 137.33 108.882 136.48 103.867 132.485C97.5766 127.47 99.7866 117.525 105.227 113.7V106.22C102.762 106.22 100.212 106.22 97.5766 106.22V93.895C113.812 93.895 126.392 94.15 142.627 93.555V104.86C138.122 105.115 133.872 105.37 129.792 105.54V117.355C127.072 117.27 123.757 117.1 119.082 116.76C117.977 118.545 121.377 120.16 131.917 120.16C147.132 120.16 161.157 118.885 169.657 115.91V132.995C158.862 135.715 147.132 137.33 131.917 137.33ZM175.77 91.685V66.355H218.355V81.995C213.34 83.27 204.755 83.78 198.635 83.78V86.33C205.095 86.33 214.19 85.565 221.585 83.78V66.355H244.45V75.195H250.91V95.255H244.45V111.915C238.5 114.38 228.13 116.25 221.585 115.825V102.055C215.295 104.18 203.905 105.455 191.41 105.455C179.51 105.455 175.77 100.95 175.77 91.685ZM177.13 107.75H201.78C201.78 114.72 206.285 118.12 215.04 118.46C225.75 118.8 235.95 118.12 244.45 114.72V133.505C234.505 136.225 226.515 137.33 213 137.33C187.755 137.33 174.24 130.275 177.13 107.75ZM253.963 102.14V85.48C259.063 85.735 268.838 85.225 273.683 83.695V81.145C268.838 82.675 259.063 83.185 253.963 82.93V66.355H296.548V75.45C296.548 99.08 286.688 103.84 253.963 102.14ZM322.643 101.97H299.778V66.355H322.643V73.495H329.103V93.555H322.643V101.97ZM253.963 121.52V104.265H322.643V136.14H271.133C259.658 136.14 253.963 131.38 253.963 121.52ZM278.188 115.485L277.083 117.95C283.798 121.095 292.808 122.2 300.288 121.775V119.31C293.233 119.735 284.648 118.46 278.188 115.485ZM331.307 101.205C331.307 74.26 339.892 65.08 353.407 65.08C367.007 65.08 375.592 74.26 375.592 101.205C375.592 128.065 367.007 137.33 353.407 137.33C339.892 137.33 331.307 128.15 331.307 101.205ZM400.837 136.14H377.972V66.355H400.837V88.54H407.297V108.6H400.837V136.14ZM345.417 96.785L343.887 99.08C349.497 101.63 356.467 102.905 362.842 102.905V100.355C356.467 100.355 350.432 98.825 345.417 96.785ZM410.35 103.67V86.415C415.025 85.565 418.51 82.93 418.51 74.685V66.355H444.01V74.685C444.01 82.93 447.155 85.565 452.255 86.415V103.67C442.735 103.67 434.575 102.055 426.925 93.98L425.14 95.51C426.33 96.87 427.86 98.145 429.56 99.335C423.865 102.055 417.66 103.67 410.35 103.67ZM479.03 103.67H454.465V66.355H479.03V74.345H485.49V94.405H479.03V103.67ZM410.35 124.835V105.965H479.03V136.14H454.465V124.835H410.35ZM519.483 87.86H513.873V102.735C513.873 113.105 517.273 115.23 519.483 115.23V136.14C510.728 136.14 504.183 130.7 501.973 125.685L500.273 127.385C500.783 128.235 502.653 131.04 503.673 131.89C499.593 134.44 493.558 136.055 487.693 136.565V115.4C490.838 115.4 493.388 111.32 493.388 102.735V87.86H487.693V68.905H492.113C492.623 71.285 495.598 75.535 498.148 75.28L499.338 73.835C495.598 73.07 493.728 69.5 493.728 67.035V63.21H515.403V68.905H519.483V87.86ZM515.743 110.64V89.39C517.443 89.305 519.398 89.22 521.438 89.05V66.355H540.053V136.14H521.438V110.47C519.398 110.64 517.358 110.64 515.743 110.64ZM560.623 136.14H542.008V66.355H560.623V136.14Z" fill="black"/>
<path d="M60.0512 177.236C60.0512 168.158 64.8112 163.432 73.5492 163.432C77.7312 163.432 80.9612 164.52 84.0212 166.832V176.998C78.7512 176.998 74.6712 176.59 68.9932 175.468V176.488C74.2972 177.712 79.0912 178.018 84.0212 178.018V186.96C80.4172 190.122 77.0852 191.04 72.1892 191.04C64.8112 191.04 60.0512 186.348 60.0512 177.236ZM97.7176 190.53H86.1576V163.942H97.7176V169.416C96.0856 170.028 94.4196 170.708 92.7876 171.728L93.1276 172.816C96.2556 170.878 101.492 169.076 104.994 169.076C108.938 169.076 110.536 170.708 110.536 175.298V190.53H98.9756V179.582L97.7176 180.058V190.53ZM111.94 184.92C111.94 181.384 113.266 179.616 116.258 178.562C118.502 177.78 122.276 177.236 125.234 177.236V176.148C121.8 176.148 117.584 176.76 113.708 178.086V171.014C116.598 169.722 120.066 169.076 124.826 169.076C131.864 169.076 134.686 171.456 134.686 178.46V190.53H126.186V189.374C126.186 186.722 125.37 184.138 124.248 182.54L123.228 182.914C124.384 184.24 125.098 187.47 125.098 189.952C123.33 190.598 121.154 191.04 118.23 191.04C114.048 191.04 111.94 188.592 111.94 184.92ZM145.292 169.756L146.482 170.946C148.794 169.688 150.936 169.076 153.248 169.076C156.852 169.076 159.81 171.728 159.81 176.318V190.53H148.93V178.562L147.672 179.038V190.53H136.792V169.756H145.292ZM161.247 179.378C161.247 172.748 165.123 169.076 170.427 169.076C173.181 169.076 174.609 169.484 176.343 170.572L177.125 169.756H184.605V187.47C184.605 194.1 180.899 197.636 173.419 197.636C169.951 197.636 166.075 197.16 163.525 196.242V188.49C167.061 190.156 171.583 190.53 174.405 189.51V188.456C167.129 190.462 161.247 186.994 161.247 179.378ZM176.649 178.596L176.037 177.746C174.371 178.766 171.107 179.514 168.557 179.514V180.466C171.107 180.466 174.745 179.82 176.649 178.596ZM189.179 190.53L185.507 169.756H194.993L195.945 176.522L197.441 169.756H202.915L204.411 176.522L205.363 169.756H214.849L211.177 190.53H201.691L200.195 184.648L198.665 190.53H189.179ZM214.936 180.228C214.936 173.462 220.104 169.076 227.006 169.076C233.908 169.076 239.076 173.462 239.076 180.228C239.076 187.028 233.908 191.414 227.006 191.414C220.104 191.414 214.936 187.062 214.936 180.228ZM231.698 179.514L231.086 178.664C229.42 179.684 225.476 180.432 222.926 180.432V181.384C225.476 181.384 229.794 180.738 231.698 179.514ZM249.318 169.756L250.508 170.946C252.82 169.688 254.962 169.076 257.274 169.076C260.878 169.076 263.836 171.728 263.836 176.318V190.53H252.956V178.562L251.698 179.038V190.53H240.818V169.756H249.318ZM275.201 190.496H265.953V163.942H274.963C284.857 163.942 289.923 167.138 289.923 177.44C289.923 187.912 285.163 190.496 275.201 190.496ZM272.413 175.536L271.801 176.454C275.065 177.508 279.553 177.984 283.123 177.984V176.964C279.553 176.964 275.439 176.386 272.413 175.536ZM291.071 184.92C291.071 181.384 292.397 179.616 295.389 178.562C297.633 177.78 301.407 177.236 304.365 177.236V176.148C300.931 176.148 296.715 176.76 292.839 178.086V171.014C295.729 169.722 299.197 169.076 303.957 169.076C310.995 169.076 313.817 171.456 313.817 178.46V190.53H305.317V189.374C305.317 186.722 304.501 184.138 303.379 182.54L302.359 182.914C303.515 184.24 304.229 187.47 304.229 189.952C302.461 190.598 300.285 191.04 297.361 191.04C293.179 191.04 291.071 188.592 291.071 184.92ZM324.423 169.756L325.613 170.946C327.925 169.688 330.067 169.076 332.379 169.076C335.983 169.076 338.941 171.728 338.941 176.318V190.53H328.061V178.562L326.803 179.038V190.53H315.923V169.756H324.423ZM340.378 179.378C340.378 172.748 344.254 169.076 349.558 169.076C352.312 169.076 353.74 169.484 355.474 170.572L356.256 169.756H363.736V187.47C363.736 194.1 360.03 197.636 352.55 197.636C349.082 197.636 345.206 197.16 342.656 196.242V188.49C346.192 190.156 350.714 190.53 353.536 189.51V188.456C346.26 190.462 340.378 186.994 340.378 179.378ZM355.78 178.596L355.168 177.746C353.502 178.766 350.238 179.514 347.688 179.514V180.466C350.238 180.466 353.876 179.82 355.78 178.596ZM365.114 184.92C365.114 181.384 366.44 179.616 369.432 178.562C371.676 177.78 375.45 177.236 378.408 177.236V176.148C374.974 176.148 370.758 176.76 366.882 178.086V171.014C369.772 169.722 373.24 169.076 378 169.076C385.038 169.076 387.86 171.456 387.86 178.46V190.53H379.36V189.374C379.36 186.722 378.544 184.138 377.422 182.54L376.402 182.914C377.558 184.24 378.272 187.47 378.272 189.952C376.504 190.598 374.328 191.04 371.404 191.04C367.222 191.04 365.114 188.592 365.114 184.92ZM408.564 178.97V190.53H399.894V178.562L398.806 179.038V190.53H389.966V169.756H396.426L397.616 170.946C399.418 169.518 400.54 169.076 402.852 169.076C404.62 169.076 405.946 169.62 406.864 170.606C408.564 169.79 410.706 169.076 412.916 169.076C416.86 169.076 418.798 171.728 418.798 176.318V190.53H409.618V178.562L408.564 178.97ZM431.928 190.496H419.688L427.848 163.942H439.408L447.568 190.496H435.328L433.628 184.988L431.928 190.496ZM429.752 176.352L429.14 177.27C431.724 178.494 435.192 178.8 438.421 178.8V177.78C435.192 177.78 432.098 177.372 429.752 176.352ZM457.225 182.744C448.657 181.69 447.433 178.868 447.433 176.42C447.433 171.524 452.329 169.076 458.449 169.076C463.345 169.076 466.473 170.3 469.125 171.524V178.12C465.453 175.672 461.781 175.74 458.449 175.74V176.76C465.793 176.76 469.465 178.766 469.465 182.88C469.465 188.456 464.569 191.108 458.449 191.108C454.777 191.108 450.901 189.884 447.433 187.436V181.316C451.105 182.914 454.539 183.764 457.225 183.764V182.744ZM470.899 184.92C470.899 181.384 472.225 179.616 475.217 178.562C477.461 177.78 481.235 177.236 484.193 177.236V176.148C480.759 176.148 476.543 176.76 472.667 178.086V171.014C475.557 169.722 479.025 169.076 483.785 169.076C490.823 169.076 493.645 171.456 493.645 178.46V190.53H485.145V189.374C485.145 186.722 484.329 184.138 483.207 182.54L482.187 182.914C483.343 184.24 484.057 187.47 484.057 189.952C482.289 190.598 480.113 191.04 477.189 191.04C473.007 191.04 470.899 188.592 470.899 184.92ZM495.037 180.228C495.037 173.394 499.627 169.076 507.685 169.076C511.901 169.076 515.539 169.892 518.123 171.626V179.752C513.669 179.752 509.317 179.446 505.101 178.596V179.786C509.011 180.738 513.975 180.942 518.123 180.942V188.014C515.097 190.394 511.357 191.074 506.529 191.074C499.627 191.074 495.037 187.096 495.037 180.228Z" fill="black"/>
</svg>
